<svg width="246" height="119" viewBox="0 0 246 119" fill="none" xmlns="http://www.w3.org/2000/svg">
<g clip-path="url(#clip0_29_2)">
<path d="M71.7125 10.4716C97.3753 11.6776 91.818 48.6425 62.447 61.4287C58.6483 63.0969 58.1861 64.7651 60.1324 68.9321C67.6359 84.9609 63.3749 120.167 80.6062 108.771C90.5182 102.192 95.0606 119.055 81.6245 118.961C57.1643 118.777 62.2628 84.7732 52.3473 71.1564C50.0327 67.9138 46.6024 68.3761 44.0098 72.3624C32.4296 90.1498 18.347 103.582 7.50711 101.73C-14.913 97.8375 16.7727 35.7659 51.1448 16.3104C55.7776 13.7177 57.4458 10.2874 55.4996 7.13866C54.5716 5.65465 53.2753 4.73018 51.4229 4.63634C46.234 4.45214 39.2866 9.91555 32.8953 20.0152C27.9845 27.7967 18.9969 20.7555 24.3735 14.458C32.3392 5.09857 44.0132 0.0974032 52.6289 0.00356605C57.4458 -0.0902711 60.7823 1.67178 62.8189 4.82054C65.5054 8.99108 67.6358 10.3778 71.5284 10.4716H71.7125ZM14.6457 92.3706C21.8711 93.3889 31.0428 82.827 38.9182 68.6541C39.4743 67.542 39.0121 66.6175 37.25 65.2273C35.7695 64.1152 36.5097 61.1506 39.1963 61.1506H39.6585C41.7889 61.1506 43.3633 60.1323 44.2913 58.0922C49.6643 46.7901 53.9252 34.6538 55.8715 24.7383C56.7056 20.4774 54.8531 19.1811 51.2387 21.5896C24.0954 39.8426 -0.642821 90.0559 14.6457 92.3706ZM54.4813 53.5533C52.535 57.5361 53.741 58.9263 57.63 57.0739C80.3282 46.3278 90.056 17.5129 71.8968 15.1044C68.0042 14.5483 65.5958 16.9568 64.9493 21.8676C63.653 31.2235 59.8543 42.4353 54.4813 53.5533Z" fill="#981B1E"/>
<path d="M90.5182 87.1854C105.435 93.2084 122.85 70.8786 129.057 60.5044C132.206 60.9667 132.3 63.9312 131.004 65.9713C122.016 80.3319 102.47 103.492 84.7733 97.4693C59.2948 88.8537 82.7367 36.4161 111.27 38.5465C126.927 39.6587 125.725 55.7778 115.531 63.8374C109.14 69.0262 99.6899 71.6189 90.7024 69.2104C86.0697 67.9141 83.6612 69.1166 83.1989 73.0091C82.549 79.3101 84.4953 84.7735 90.5182 87.1854ZM112.292 59.5765C117.759 54.6657 119.983 44.1038 110.068 43.0855C102.655 42.4356 94.4107 49.2926 88.9438 57.8179C86.5354 61.5227 87.9255 64.5811 92.1864 65.1372C100.062 66.1555 107.565 63.9312 112.292 59.5799V59.5765Z" fill="#981B1E"/>
<path d="M127.111 90.0566C134.247 93.115 143.602 76.346 153.424 60.5014C155.739 60.9636 157.129 63.0941 155.464 65.9683C148.795 77.1801 133.878 105.157 120.258 99.4125C111.548 95.7077 114.885 83.0153 123.038 69.5793C125.263 65.9648 132.766 53.9224 142.956 39.9337C148.979 31.6864 154.168 23.5365 158.335 17.3294C164.08 8.80409 171.121 14.549 165.56 21.4999C158.425 30.5778 150.553 40.4932 143.602 49.8491C134.615 62.0792 118.312 86.1676 127.111 90.0566Z" fill="#981B1E"/>
<path d="M163.801 87.1854C178.718 93.2084 196.134 70.8786 202.341 60.5044C205.489 60.9667 205.583 63.9312 204.287 65.9713C195.299 80.3319 175.753 103.492 158.057 97.4693C132.578 88.8537 156.02 36.4161 184.553 38.5465C200.21 39.6587 199.008 55.7778 188.814 63.8374C182.423 69.0262 172.973 71.6189 163.986 69.2104C159.353 67.9141 156.944 69.1166 156.482 73.0091C155.832 79.3101 157.778 84.7735 163.801 87.1854ZM185.572 59.5765C191.039 54.6657 193.263 44.1038 183.347 43.0855C175.934 42.4356 167.69 49.2926 162.224 57.8179C159.815 61.5227 161.205 64.5811 165.466 65.1372C173.342 66.1555 180.845 63.9312 185.572 59.5799V59.5765Z" fill="#981B1E"/>
<path d="M223.186 42.0639C217.72 49.4771 227.263 68.2827 227.447 79.3069C227.541 84.4957 227.819 84.6799 230.412 80.5128L243.01 60.5012C245.325 60.9634 246.347 63.0939 244.769 65.9681C242.639 69.9509 238.84 77.086 236.338 81.0689C220.496 105.713 197.52 104.785 185.752 93.299C183.994 91.537 185.474 87.8321 188.067 89.0381C197.611 93.5771 216.232 94.9672 217.713 80.7909C218.269 75.324 217.619 67.1706 215.582 57.6305C214.376 51.7952 213.636 51.5172 210.856 56.0561C208.725 59.4829 206.685 62.8193 205.945 63.8376C203.442 67.3583 200.666 66.896 199.644 64.7656C202.33 60.7827 204.923 56.0561 207.981 51.2391C210.762 46.7906 214.004 42.2516 215.951 40.0273C217.709 37.9907 219.565 36.4129 221.508 35.1165C224.657 33.0799 228.177 37.3408 224.935 40.2115C224.285 40.7676 223.729 41.3237 223.176 42.0639H223.186Z" fill="#981B1E"/>
</g>
<defs>
<clipPath id="clip0_29_2">
<rect width="245.53" height="118.961" fill="white"/>
</clipPath>
</defs>
</svg>
