<svg width="64" height="64" viewBox="0 0 64 64" fill="none" xmlns="http://www.w3.org/2000/svg">
<g clip-path="url(#clip0_92_861)">
<path d="M54.3605 5.42563V51.5028L45.3664 45.078V15.3404C45.3664 13.2227 43.6448 11.5 41.5272 11.5H20.4082V5.42563C20.4082 4.08604 21.4942 3 22.8327 3H51.9349C53.2745 3 54.3605 4.08604 54.3605 5.42563Z" fill="#981B1E"/>
<path d="M41.5267 12.9148H12.4245C11.085 12.9148 10 14.0008 10 15.3404V61.4176L26.9761 49.2916L43.9512 61.4176V15.3404C43.9512 14.0008 42.8663 12.9148 41.5267 12.9148ZM32.6577 40.7589C31.2311 41.5283 29.6249 41.9342 28.0132 41.9342C25.0272 41.9342 22.25 40.5881 20.4077 38.3279C20.1541 38.0166 19.9169 37.6869 19.7003 37.3419C19.5861 37.1591 19.4762 36.9709 19.3728 36.7793C19.2335 36.5203 19.1073 36.2581 18.993 35.9937C17.9048 33.4614 17.969 30.6734 18.993 28.2728C19.1921 27.8037 19.4283 27.35 19.7003 26.9158C19.9136 26.573 20.1498 26.2432 20.4077 25.9266C21.0584 25.1267 21.8441 24.4205 22.7539 23.8448C22.0019 22.6271 21.1433 21.6292 20.4077 20.886C20.1541 20.6291 19.9158 20.4028 19.7003 20.208C19.4141 19.9501 19.1715 19.7477 18.993 19.6062C18.7928 19.4463 18.6742 19.3625 18.6687 19.3592C18.3499 19.135 18.2715 18.6943 18.4957 18.3744C18.6165 18.2013 18.8004 18.1001 18.993 18.0773C19.1595 18.0588 19.3325 18.0969 19.4805 18.2003C19.4969 18.2122 19.5741 18.2666 19.7003 18.3624C19.8636 18.4875 20.1073 18.6812 20.4077 18.9413C21.3283 19.7412 22.7735 21.1711 23.9836 23.1429C23.9901 23.1538 23.9966 23.1636 24.0021 23.1745C24.5211 22.9427 25.0576 22.7566 25.6061 22.6173C26.3874 22.4204 27.1927 22.3181 27.998 22.3181C31.613 22.3181 34.9245 24.2932 36.6384 27.474C39.2033 32.2339 37.4187 38.1929 32.6577 40.7589Z" fill="#981B1E"/>
<path d="M31.9875 39.5129C30.7208 40.1963 29.3573 40.5195 28.0133 40.5195C25.0262 40.5195 22.1348 38.9209 20.6189 36.1078C20.5438 35.9686 20.4731 35.8282 20.4078 35.6878C20.0498 34.926 19.8169 34.136 19.7005 33.3405C19.5818 32.5309 19.584 31.7158 19.7005 30.9203C19.8191 30.1053 20.0574 29.3098 20.4078 28.5633C21.1445 26.9886 22.3753 25.6283 24.0239 24.7393C25.2906 24.057 26.6541 23.7327 27.9981 23.7327C30.9852 23.7327 33.8766 25.3313 35.3925 28.1443C37.5918 32.224 36.0672 37.3147 31.9875 39.5129Z" fill="#981B1E"/>
</g>
<defs>
<clipPath id="clip0_92_861">
<rect width="44.36" height="58.4175" fill="white" transform="translate(10 3)"/>
</clipPath>
</defs>
</svg>
