<svg width="64" height="64" viewBox="0 0 64 64" fill="none" xmlns="http://www.w3.org/2000/svg">
<g clip-path="url(#clip0_92_870)">
<g clip-path="url(#clip1_92_870)">
<path d="M55.6129 4C55.6129 4 53.8432 19.3041 53.5106 20.1535H2L15.0408 46.6861H18.3568C18.3547 46.6946 18.3526 46.7031 18.3515 46.7116L17.7425 50.4407C17.7341 50.4936 17.7319 50.5466 17.7362 50.5985C15.3034 50.9332 13.4277 53.0207 13.4277 55.5466C13.4277 58.3045 15.6646 60.5403 18.4225 60.5403C21.1804 60.5403 23.4172 58.3045 23.4172 55.5466C23.4172 53.0217 21.5437 50.9353 19.112 50.5995L19.7103 46.934C19.7241 46.8492 19.722 46.7656 19.705 46.6861H44.7253C44.7094 46.7656 44.7073 46.8492 44.7211 46.934L45.3131 50.5678C42.7374 50.7669 40.7103 52.92 40.7103 55.5466C40.7103 58.3045 42.946 60.5403 45.705 60.5403C48.464 60.5403 50.6997 58.3045 50.6997 55.5466C50.6997 53.1255 48.9766 51.1068 46.69 50.6493C46.6995 50.5826 46.6995 50.5116 46.6879 50.4407L46.0799 46.7116C46.0799 46.7031 46.0768 46.6946 46.0746 46.6861H49.5993L51.2399 35.5539L55.2941 32.8489L58.7193 7.75029H68.9937V4H55.6119H55.6129ZM44.1958 35.0275C43.6789 39.7077 39.7009 43.1826 35.097 43.1826C34.7623 43.1826 34.4245 43.1646 34.0835 43.1265C31.9388 42.8893 29.9402 41.8979 28.4533 40.3358L21.8466 33.6814C20.1997 32.0292 19.7644 29.6208 20.5375 27.5672C17.572 25.6852 14.6627 25.1408 14.633 25.1355C14.2591 25.0677 14.0102 24.7097 14.078 24.3359C14.1458 23.962 14.5027 23.7131 14.8766 23.7809C15.0079 23.8042 18.0115 24.3602 21.1772 26.3418C21.3753 26.0516 21.604 25.7762 21.8624 25.5189C23.1228 24.2628 24.9275 23.6527 26.692 23.8857L36.0968 24.9152C38.5296 25.1842 40.7113 26.3842 42.2407 28.2937C43.7711 30.2044 44.4648 32.5958 44.1958 35.0275Z" fill="#981B1E"/>
</g>
</g>
<defs>
<clipPath id="clip0_92_870">
<rect width="64" height="64" fill="white"/>
</clipPath>
<clipPath id="clip1_92_870">
<rect width="66.9947" height="56.5403" fill="white" transform="translate(2 4)"/>
</clipPath>
</defs>
</svg>
