<svg width="64" height="64" viewBox="0 0 64 64" fill="none" xmlns="http://www.w3.org/2000/svg">
<g clip-path="url(#clip0_92_870)">
<g clip-path="url(#clip1_92_870)">
<path d="M56.7699 3.04468C56.7699 3.04468 54.9619 18.679 54.6222 19.5467H2L15.3222 46.652H18.7098C18.7076 46.6606 18.7055 46.6693 18.7044 46.6779L18.0822 50.4875C18.0736 50.5416 18.0714 50.5957 18.0758 50.6487C15.5905 50.9906 13.6743 53.1232 13.6743 55.7036C13.6743 58.5211 15.9594 60.8051 18.7769 60.8051C21.5943 60.8051 23.8794 58.5211 23.8794 55.7036C23.8794 53.1243 21.9654 50.9928 19.4812 50.6498L20.0925 46.9052C20.1066 46.8186 20.1044 46.7331 20.0871 46.652H45.6473C45.6311 46.7331 45.6289 46.8186 45.643 46.9052L46.2478 50.6174C43.6165 50.8208 41.5456 53.0204 41.5456 55.7036C41.5456 58.5211 43.8296 60.8051 46.6481 60.8051C49.4666 60.8051 51.7507 58.5211 51.7507 55.7036C51.7507 53.2303 49.9903 51.1681 47.6544 50.7007C47.6641 50.6325 47.6641 50.56 47.6522 50.4875L47.0312 46.6779C47.0312 46.6693 47.0279 46.6606 47.0257 46.652H50.6265L52.3025 35.2795L56.4442 32.5162L59.9433 6.8759H70.4393V3.04468H56.7688H56.7699ZM45.1063 34.7418C44.5784 39.5229 40.5145 43.0729 35.8112 43.0729C35.4693 43.0729 35.1242 43.0545 34.7758 43.0155C32.5848 42.7731 30.5432 41.7604 29.0241 40.1645L22.2748 33.3666C20.5924 31.6787 20.1477 29.2184 20.9375 27.1204C17.908 25.1978 14.9359 24.6417 14.9056 24.6363C14.5237 24.567 14.2694 24.2013 14.3387 23.8194C14.4079 23.4375 14.7725 23.1832 15.1545 23.2524C15.2886 23.2762 18.3571 23.8443 21.591 25.8686C21.7934 25.5722 22.0271 25.2908 22.2911 25.0279C23.5786 23.7447 25.4223 23.1215 27.2248 23.3595L36.8326 24.4112C39.3179 24.686 41.5467 25.9119 43.1091 27.8627C44.6725 29.8145 45.3812 32.2576 45.1063 34.7418Z" fill="#981B1E"/>
<path d="M43.7089 34.5873C43.2274 38.9465 39.2891 42.0993 34.9309 41.6178C33.0667 41.4123 31.3302 40.5499 30.0383 39.1899L23.2728 32.3757H23.2717C21.5244 30.6208 21.5298 27.772 23.2847 26.0246C24.1276 25.185 25.2831 24.7166 26.4624 24.7166C26.6572 24.7166 26.853 24.7295 27.0478 24.7555L36.6794 25.8093C38.7903 26.043 40.6848 27.085 42.0123 28.7425C43.3399 30.4001 43.9426 32.4764 43.7089 34.5873Z" fill="#981B1E"/>
</g>
</g>
<defs>
<clipPath id="clip0_92_870">
<rect width="64" height="64" fill="white"/>
</clipPath>
<clipPath id="clip1_92_870">
<rect width="68.4404" height="57.7604" fill="white" transform="translate(2 3.04468)"/>
</clipPath>
</defs>
</svg>
