<svg width="64" height="64" viewBox="0 0 64 64" fill="none" xmlns="http://www.w3.org/2000/svg">
<g clip-path="url(#clip0_92_856)">
<path d="M49.7368 48.5868C49.2735 50.5832 48.7129 53.2097 48.2306 56.0734C48.2429 57.5304 48.1444 59.5582 47.6196 61.0208C47.5132 61.3185 47.2335 61.5031 46.9347 61.5031C46.8541 61.5031 46.7713 61.4897 46.6896 61.4606C46.3114 61.3252 46.1144 60.9089 46.2509 60.5306C46.6471 59.4239 46.7601 57.8706 46.7747 56.5993C46.7478 56.5333 46.731 56.4617 46.7254 56.3878C46.7187 56.3061 46.2017 50.1154 43.573 45.1759C43.3324 44.7215 43.0728 44.2773 42.7941 43.8498C42.7661 43.7994 42.7348 43.7491 42.6968 43.6987C41.7456 43.73 40.8425 43.6909 40.0032 43.5812C35.6578 43.0161 32.6934 40.5407 31.1905 36.2255C29.8577 32.3983 29.9282 27.8773 30.2214 24.7595C30.3702 23.1716 30.5851 21.8679 30.7317 21.0823C32.2167 21.653 35.5963 23.0765 38.7946 25.29C39.0229 25.4478 39.2523 25.6112 39.4783 25.7779C42.6565 28.1145 44.7111 30.638 45.5873 33.2801C46.5911 36.3084 46.0215 39.5268 43.893 42.8628C43.8942 42.8628 43.8953 42.8661 43.8964 42.8672C45.171 44.764 46.2129 47.1555 47.0074 50.0203C47.2021 50.722 47.3655 51.3957 47.5032 52.0257C47.793 50.5911 48.0761 49.312 48.3156 48.2824C41.1502 34.4283 61.9526 30.8518 61.9526 30.8518C61.9526 30.8518 63.451 50.609 49.7368 48.5868Z" fill="#981B1E"/>
<path d="M28.7661 24.6913C28.465 27.95 28.408 32.6569 29.8158 36.7045C31.4731 41.4639 34.7162 44.2448 39.4588 44.9745V59.1688C39.4588 59.9074 38.8545 60.5116 38.1159 60.5116H6.36676C5.62817 60.5116 5.02387 59.9074 5.02387 59.1688V24.0579H1.00977L22.2408 2.8269L43.4718 24.0579H39.5707C35.175 21.0275 30.6103 19.482 30.4178 19.4182L29.6602 19.1642L29.4789 19.9431C29.461 20.0214 29.0279 21.8959 28.7728 24.623C28.7706 24.6454 28.7683 24.6678 28.7661 24.6913Z" fill="#981B1E"/>
</g>
<defs>
<clipPath id="clip0_92_856">
<rect width="60.9905" height="58.6762" fill="white" transform="translate(1.00977 2.8269)"/>
</clipPath>
</defs>
</svg>
