<svg width="64" height="64" viewBox="0 0 64 64" fill="none" xmlns="http://www.w3.org/2000/svg">
<g clip-path="url(#clip0_92_883)">
<path d="M52.0942 52.9912L52.082 53.0033H52.1036C52.1036 53.0033 52.0969 52.9952 52.0942 52.9912ZM32.1753 3.3501C16.2805 3.3501 3.34961 16.281 3.34961 32.1758C3.34961 40.0333 6.511 47.1673 11.6276 52.3719C15.3502 47.9692 20.0571 44.9268 25.2995 43.5259C20.7927 41.0798 17.7259 36.3013 17.7259 30.8222C17.7259 22.8552 24.2083 16.3743 32.1753 16.3743C32.9028 16.3743 33.6181 16.4283 34.3158 16.5325L34.7187 9.27668C34.7458 8.7926 35.1609 8.42076 35.6463 8.4478C36.1304 8.47484 36.5009 8.88996 36.4739 9.37404L36.1669 14.8936L39.4229 11.981C39.7853 11.6565 40.3411 11.6876 40.6642 12.05C40.9874 12.411 40.9563 12.9668 40.5953 13.2913L36.4333 17.0138C42.3274 18.8366 46.6233 24.3372 46.6233 30.8222C46.6233 36.3013 43.5565 41.0785 39.0497 43.5259C44.2908 44.9268 48.9991 47.9692 52.7216 52.3719C57.8382 47.1673 60.9996 40.0333 60.9996 32.1758C60.9996 16.281 48.0688 3.3501 32.1753 3.3501ZM12.255 52.9912C12.255 52.9912 12.2496 52.9993 12.2456 53.0033H12.2672C12.2672 53.0033 12.2591 52.9952 12.255 52.9912Z" fill="#981B1E"/>
<path d="M12.2556 52.991C12.2556 52.991 12.2502 52.9991 12.2461 53.0031H12.2677C12.2677 53.0031 12.2596 52.995 12.2556 52.991ZM52.0947 52.991L52.0825 53.0031H52.1042C52.1042 53.0031 52.0974 52.995 52.0947 52.991Z" fill="white"/>
<path d="M51.4532 53.5886C46.342 58.1928 39.5811 60.9999 32.1766 60.9999C24.7721 60.9999 18.0126 58.1928 12.9014 53.59C12.9189 53.5697 12.9338 53.5521 12.946 53.5359C13.0974 53.356 13.2516 53.1789 13.4071 53.0031C17.0593 48.883 21.6526 46.1151 26.7341 44.9834C27.2101 44.8752 27.6955 44.7832 28.1796 44.7075H28.181C29.4506 45.074 30.7906 45.27 32.1766 45.27C33.5626 45.27 34.9026 45.074 36.171 44.7075C36.655 44.7832 37.1405 44.8752 37.6191 44.9834C42.6925 46.1151 47.2818 48.8776 50.9313 52.9909C51.0976 53.1775 51.2612 53.3655 51.4221 53.5575C51.4316 53.5683 51.4397 53.5791 51.4519 53.5886H51.4532Z" fill="#981B1E"/>
<path d="M44.8651 30.822C44.8651 36.4809 41.1615 41.273 36.0475 42.9091C34.8265 43.3012 33.5257 43.5122 32.1749 43.5122C30.8241 43.5122 29.5233 43.3012 28.3023 42.9091C23.187 41.273 19.4834 36.4809 19.4834 30.822C19.4834 23.8137 25.1652 18.1318 32.1749 18.1318C39.1846 18.1318 44.8651 23.8137 44.8651 30.822Z" fill="#981B1E"/>
</g>
<defs>
<clipPath id="clip0_92_883">
<rect width="57.65" height="57.65" fill="white" transform="translate(3.34961 3.3501)"/>
</clipPath>
</defs>
</svg>
